<?xml version="1.0" encoding="utf-8"?>
<!-- Generator: Adobe Illustrator 22.1.0, SVG Export Plug-In . SVG Version: 6.00 Build 0)  -->
<svg version="1.1" id="pin" xmlns="http://www.w3.org/2000/svg" xmlns:xlink="http://www.w3.org/1999/xlink" x="0px" y="0px"
	 viewBox="0 0 50 73.9" style="enable-background:new 0 0 50 73.9;" xml:space="preserve">
<style type="text/css">
	.st0{fill:#ffffff;}
	.st1{fill:#000000;}
</style>
<g>
	<g>
		<g>
			<g>
				<g>
					<path class="st0" d="M25,0L25,0C25,0,25,0,25,0C25,0,25,0,25,0L25,0C11.2,0,0,10.9,0,25c0,0.3,0,0.5,0,0.8
						c1,17.1,25,48.1,25,48.1c0,0,24-31,25-48.1c0-0.3,0-0.5,0-0.8C50,10.9,38.8,0,25,0z"/>
				</g>
			</g>
		</g>
	</g>
	<g>
		<path class="st1" d="M25,7c3.1,0,6,0.8,8.6,2.3c2.6,1.6,4.7,3.6,6.3,6.3s2.3,5.5,2.3,8.6s-0.8,6-2.3,8.6s-3.6,4.7-6.3,6.3
			c-2.6,1.6-5.5,2.3-8.6,2.3s-6-0.8-8.6-2.3c-2.6-1.6-4.7-3.6-6.3-6.3s-2.3-5.5-2.3-8.6s0.8-6,2.3-8.6s3.6-4.7,6.3-6.3
			C19,7.7,21.9,7,25,7z M28.9,32.2v-1.7c0-0.2-0.1-0.4-0.2-0.6c-0.2-0.2-0.4-0.2-0.6-0.2h-0.8v-6.9c0-0.2-0.1-0.4-0.2-0.6
			C26.8,22,26.6,22,26.4,22h-4.4c-0.2,0-0.4,0.1-0.6,0.2c-0.2,0.2-0.2,0.4-0.2,0.6v1.7c0,0.2,0.1,0.4,0.2,0.6
			c0.2,0.2,0.4,0.2,0.6,0.2h0.8v4.4h-0.8c-0.2,0-0.4,0.1-0.6,0.2c-0.2,0.2-0.2,0.4-0.2,0.6v1.7c0,0.2,0.1,0.4,0.2,0.6
			c0.2,0.2,0.4,0.2,0.6,0.2h6.1c0.2,0,0.4-0.1,0.6-0.2C28.8,32.7,28.9,32.5,28.9,32.2z M25,14.6c-0.8,0-1.5,0.3-2,0.9
			c-0.6,0.6-0.9,1.3-0.9,2s0.3,1.5,0.9,2c0.6,0.6,1.3,0.9,2,0.9s1.5-0.3,2-0.9c0.6-0.6,0.9-1.3,0.9-2s-0.3-1.5-0.9-2
			C26.5,14.9,25.8,14.6,25,14.6z"/>
	</g>
</g>
</svg>
