<?xml version="1.0" encoding="utf-8"?>
<!-- Generator: Adobe Illustrator 22.1.0, SVG Export Plug-In . SVG Version: 6.00 Build 0)  -->
<svg version="1.1" id="pin" xmlns="http://www.w3.org/2000/svg" xmlns:xlink="http://www.w3.org/1999/xlink" x="0px" y="0px"
	 viewBox="0 0 50 73.9" style="enable-background:new 0 0 50 73.9;" xml:space="preserve">
<style type="text/css">
	.st0{fill:#FFFFFF;}
	.st1{fill:#000000;}
</style>
<g>
	<g>
		<g>
			<g>
				<path class="st0" d="M25,0L25,0C25,0,25,0,25,0C25,0,25,0,25,0L25,0C11.2,0,0,10.9,0,25c0,0.3,0,0.5,0,0.8
					c1,17.1,25,48.1,25,48.1c0,0,24-31,25-48.1c0-0.3,0-0.5,0-0.8C50,10.9,38.8,0,25,0z"/>
			</g>
		</g>
	</g>
	<path class="st1" d="M25,42.3L25,42.3C25,42.3,25,42.3,25,42.3C25,42.3,25,42.3,25,42.3L25,42.3c-9.6-0.1-17.3-7.8-17.3-17.3
		c0-9.5,7.7-17.2,17.2-17.3v0c0,0,0,0,0,0c0,0,0,0,0,0v0c9.5,0.1,17.2,7.8,17.2,17.3C42.2,34.5,34.5,42.2,25,42.3z"/>
</g>
</svg>
