<?xml version="1.0" encoding="utf-8"?>
<!-- Generator: Adobe Illustrator 22.1.0, SVG Export Plug-In . SVG Version: 6.00 Build 0)  -->
<svg version="1.1" id="pin" xmlns="http://www.w3.org/2000/svg" xmlns:xlink="http://www.w3.org/1999/xlink" x="0px" y="0px"
	 viewBox="0 0 50 73.9" style="enable-background:new 0 0 50 73.9;" xml:space="preserve">
<style type="text/css">
	.st0{fill:#000000;}
	.st1{fill:#FFFFFF;}
</style>
<g>
	<g>
		<g>
			<g>
				<g>
					<path class="st0" d="M25,0L25,0C25,0,25,0,25,0C25,0,25,0,25,0L25,0C11.2,0,0,10.9,0,25c0,0.3,0,0.5,0,0.8
						c1,17.1,25,48.1,25,48.1c0,0,24-31,25-48.1c0-0.3,0-0.5,0-0.8C50,10.9,38.8,0,25,0z"/>
				</g>
			</g>
		</g>
	</g>
	<g>
		<path class="st1" d="M25.1,19.7h-1.4V24h1.2c1,0,1.7-0.2,2-0.6c0.4-0.4,0.6-0.9,0.6-1.5c0-0.6-0.2-1.1-0.5-1.5
			C26.7,19.9,26.1,19.7,25.1,19.7z"/>
		<path class="st1" d="M38.2,10.5H11.8c-0.8,0-1.4,0.6-1.4,1.4v26.4c0,0.8,0.6,1.4,1.4,1.4h26.4c0.8,0,1.4-0.6,1.4-1.4V11.9
			C39.6,11.1,39,10.5,38.2,10.5z M31,26.2c-1,1.1-2.5,1.6-4.5,1.6h-2.8V35h-5.1V15.8H27c1.8,0,3.2,0.5,4.1,1.5
			c0.9,1,1.4,2.5,1.4,4.4C32.5,23.6,32,25.1,31,26.2z"/>
	</g>
</g>
</svg>
