<?xml version="1.0" encoding="utf-8"?>
<!-- Generator: Adobe Illustrator 22.1.0, SVG Export Plug-In . SVG Version: 6.00 Build 0)  -->
<svg version="1.1" id="pin" xmlns="http://www.w3.org/2000/svg" xmlns:xlink="http://www.w3.org/1999/xlink" x="0px" y="0px"
	 viewBox="0 0 50 73.9" style="enable-background:new 0 0 50 73.9;" xml:space="preserve">
<style type="text/css">
	.st0{fill:#EC614D;}
	.st1{fill:#FFFFFF;}
</style>
<g>
	<g>
		<g>
			<g>
				<g>
					<path class="st0" d="M25,0L25,0C25,0,25,0,25,0C25,0,25,0,25,0L25,0C11.2,0,0,10.9,0,25c0,0.3,0,0.5,0,0.8
						c1,17.1,25,48.1,25,48.1c0,0,24-31,25-48.1c0-0.3,0-0.5,0-0.8C50,10.9,38.8,0,25,0z"/>
				</g>
			</g>
		</g>
	</g>
	<g>
		<g>
			<path class="st1" d="M24.3,19.7c0,1.5-0.3,2.8-0.8,3.8c-0.6,1.1-1.3,1.8-2.3,2.3l0.6,14c0,0.4-0.1,0.7-0.3,1
				c-0.2,0.3-0.5,0.4-0.8,0.4h-2.9c-0.3,0-0.6-0.1-0.8-0.4c-0.2-0.3-0.3-0.6-0.3-1l0.6-14c-1-0.5-1.7-1.2-2.3-2.3
				c-0.6-1.1-0.8-2.4-0.8-3.8c0-1.3,0.2-3.9,0.7-7.6c0.1-0.4,0.3-0.6,0.6-0.8c0.3-0.2,0.7-0.2,1,0c0.3,0.2,0.5,0.4,0.6,0.8v8.3
				c0,0.1,0.2,0.2,0.4,0.2c0.2,0,0.3,0,0.4-0.1l0.4-8.3c0.1-0.4,0.3-0.7,0.6-0.8c0.3-0.2,0.7-0.2,1,0c0.3,0.2,0.5,0.4,0.6,0.8
				l0.4,8.3c0,0.1,0.2,0.1,0.4,0.1c0.2,0,0.3-0.1,0.4-0.2v-8.3c0-0.4,0.2-0.7,0.6-0.8c0.3-0.2,0.7-0.2,1,0c0.3,0.2,0.5,0.4,0.6,0.8
				C24,15.8,24.3,18.4,24.3,19.7z M30.6,39.8c0,0.4,0.1,0.7,0.3,1.1c0.2,0.3,0.5,0.5,0.8,0.5h2.5c0.3,0,0.6-0.1,0.8-0.4
				c0.2-0.3,0.3-0.6,0.3-1V12.6c0-0.4-0.1-0.7-0.3-1c-0.2-0.3-0.5-0.4-0.8-0.4c-1,0-2,0.6-3.1,1.8c-1.1,1.2-1.9,2.6-2.5,4.4
				c-0.6,1.9-0.8,3.8-0.5,5.7c0.4,2.2,1.4,4.1,3,5.8L30.6,39.8z"/>
		</g>
	</g>
</g>
</svg>
