<?xml version="1.0" encoding="utf-8"?>
<!-- Generator: Adobe Illustrator 22.1.0, SVG Export Plug-In . SVG Version: 6.00 Build 0)  -->
<svg version="1.1" id="pin" xmlns="http://www.w3.org/2000/svg" xmlns:xlink="http://www.w3.org/1999/xlink" x="0px" y="0px"
	 viewBox="0 0 170.5 251.8" style="enable-background:new 0 0 170.5 251.8;" xml:space="preserve">
<style type="text/css">
	.st0{fill:#FFFFFF;}
	.st1{fill:#000000;}
</style>
<g>
	<g>
		<g>
			<g>
				<g>
					<path class="st0" d="M85.3-0.1L85.3-0.1C85.3-0.1,85.2-0.1,85.3-0.1c-0.1,0-0.1,0-0.1,0v0C38.1-0.1,0,37,0,85.1
						c0,0.9,0,1.8,0.1,2.7c3.4,58.3,85.1,164,85.1,164c0,0,81.7-105.7,85.1-164c0.1-0.9,0.1-1.8,0.1-2.7
						C170.5,37,132.3-0.1,85.3-0.1z"/>
				</g>
			</g>
		</g>
	</g>
	<g>
		<g>
			<path class="st1" d="M82.7,67c0,5.1-1,9.4-2.9,13.1S75.3,86.4,72,88l2,47.6c0.1,1.3-0.2,2.5-1,3.5s-1.7,1.5-2.7,1.5h-9.9
				c-1,0-1.9-0.5-2.7-1.5s-1.1-2.2-1-3.5l2-47.6c-3.3-1.6-5.9-4.2-7.8-7.9s-2.9-8-2.9-13.1c0-4.5,0.8-13.1,2.5-25.8
				c0.2-1.2,0.9-2.1,2-2.6c1.1-0.5,2.3-0.5,3.5,0c1.2,0.5,1.8,1.5,1.9,2.8v28.2c0.1,0.4,0.5,0.6,1.2,0.6c0.7,0,1.1-0.1,1.2-0.4
				l1.2-28.4c0.2-1.3,0.9-2.3,2-2.8c1.1-0.5,2.3-0.5,3.4,0c1.1,0.5,1.8,1.5,2,2.8l1.2,28.4c0.1,0.3,0.5,0.4,1.2,0.4
				c0.7,0,1.1-0.2,1.2-0.6V41.4c0.1-1.3,0.7-2.3,1.9-2.8c1.2-0.5,2.3-0.5,3.5,0c1.1,0.5,1.8,1.4,2,2.6C81.9,53.9,82.7,62.5,82.7,67z
				 M104.3,135.4c-0.1,1.3,0.2,2.5,0.9,3.6c0.7,1.1,1.6,1.6,2.8,1.6h8.6c1,0,1.9-0.5,2.6-1.4c0.7-0.9,1.1-2.1,1.1-3.4V43
				c0-1.3-0.4-2.5-1.1-3.4c-0.7-0.9-1.6-1.4-2.6-1.4c-3.3,0-6.8,2-10.4,6c-3.7,4-6.5,9-8.4,15c-2.2,6.5-2.7,13-1.5,19.4
				c1.2,7.5,4.7,14.1,10.3,19.8L104.3,135.4z"/>
		</g>
	</g>
</g>
</svg>
